<?xml version="1.0" standalone="no"?>
<!DOCTYPE svg PUBLIC "-//W3C//DTD SVG 20010904//EN"
 "http://www.w3.org/TR/2001/REC-SVG-20010904/DTD/svg10.dtd">
<svg version="1.0" xmlns="http://www.w3.org/2000/svg"
 width="900.000000pt" height="238.000000pt" viewBox="0 0 900.000000 238.000000"
 preserveAspectRatio="xMidYMid meet">

<g transform="translate(0.000000,238.000000) scale(0.100000,-0.100000)"
fill="#ffff" stroke="none">
<path d="M7917 1803 c-4 -3 -7 -24 -7 -45 0 -36 -2 -38 -32 -38 -18 0 -57 -3
-85 -6 -50 -6 -53 -9 -59 -39 -8 -43 -16 -45 -196 -45 l-148 0 0 -49 c0 -75
-4 -81 -65 -81 l-52 0 -7 -50 -7 -50 -214 0 -214 0 -3 88 -3 87 -122 3 -123 3
-8 32 c-6 25 -14 33 -35 35 l-27 3 0 -80 0 -81 -35 0 c-29 0 -36 -4 -41 -25
l-6 -25 -158 0 c-176 0 -170 -2 -170 72 0 31 -9 52 -36 89 -32 44 -40 49 -73
49 -33 0 -42 -5 -66 -40 -15 -22 -31 -40 -35 -40 -4 0 -23 18 -43 40 -49 55
-80 54 -129 -2 l-37 -43 -39 43 c-55 58 -84 57 -138 -5 l-41 -47 -32 47 c-28
42 -36 47 -69 47 -32 -1 -41 -7 -71 -47 l-34 -47 -33 40 c-19 21 -34 42 -34
47 0 4 -17 7 -39 7 -34 0 -43 -5 -74 -45 l-35 -46 -37 46 c-49 59 -72 59 -122
0 l-39 -46 -33 46 c-29 41 -36 45 -73 45 -36 0 -46 -5 -76 -41 l-35 -41 -37
41 c-22 24 -47 41 -59 41 -20 0 -91 -64 -91 -82 0 -20 -22 -4 -50 37 -41 60
-69 60 -127 3 l-43 -42 -37 36 c-30 28 -49 37 -90 43 -29 4 -55 11 -59 16 -9
15 -1340 12 -1381 -3 -27 -10 -38 -10 -53 0 -15 9 -125 12 -430 12 -348 0
-410 -2 -410 -14 0 -18 -92 -29 -199 -24 l-75 3 -46 65 -46 65 -156 3 -155 2
-51 -70 -52 -70 -83 0 -84 0 -6 -43 c-22 -160 -30 -406 -18 -574 7 -98 15
-197 18 -220 l6 -43 84 0 83 0 52 -70 51 -70 155 2 156 3 46 65 46 65 75 3
c107 5 199 -6 199 -24 0 -12 62 -14 410 -14 305 0 415 3 430 12 15 10 26 10
53 0 41 -15 1372 -18 1381 -3 4 5 30 12 59 16 41 6 60 15 90 43 l37 36 43 -42
c58 -57 86 -57 127 3 28 41 50 57 50 38 0 -19 71 -83 91 -83 12 0 37 17 59 41
l37 41 35 -41 c30 -36 40 -41 76 -41 37 0 44 4 73 45 l33 46 39 -46 c50 -59
73 -59 122 0 l37 46 35 -46 c31 -39 41 -45 72 -45 31 1 41 7 70 47 l34 47 33
-40 c19 -21 34 -42 34 -46 0 -5 18 -8 40 -8 35 0 42 4 71 47 l32 47 41 -47
c54 -62 83 -63 138 -4 l39 42 37 -43 c49 -56 80 -57 129 -2 20 22 39 40 43 40
4 0 20 -18 35 -40 24 -35 33 -40 66 -40 33 0 41 5 73 49 27 37 36 58 36 89 0
74 -6 72 170 72 l158 0 6 -25 c5 -21 12 -25 41 -25 l35 0 0 -81 0 -80 27 3
c21 2 29 10 35 35 l8 32 123 3 122 3 3 88 3 87 214 0 214 0 7 -50 7 -50 52 0
c61 0 65 -6 65 -81 l0 -49 148 0 c180 0 188 -2 196 -45 6 -30 9 -33 59 -39 28
-3 66 -6 84 -6 30 0 32 -2 35 -43 3 -39 5 -42 36 -45 l32 -3 0 620 0 621 -28
0 c-16 0 -32 -3 -35 -7z"/>
</g>
</svg>
